<svg xmlns="http://www.w3.org/2000/svg"><symbol id="copyright" viewBox="0 0 27 34"><path d="M13.643.016L13.5 0 0 1.407v24.606L13.5 34 27 26.013V1.407L13.643.016zm11.591 25L13.5 31.956 1.766 25.015V14.93l11.685 6.916.02 1.253-8.017-4.743-.011 1.225 8.046 4.809.02 1.286-8.045-4.758-.01 1.226L13.5 26.95l8.124-4.833V16.91l3.62-2.15-.01 10.256zm0-11.564l-3.22 1.88-1.482.875-7.065-4.187-.011 1.225 6.04 3.573-.053.031-.13.076-.86.492-4.986-2.948-.011 1.225 3.936 2.328-.933.61-.021.012-2.971-1.742-.011 1.225 1.947 1.135-1.988 1.186-11.618-6.872 11.638-6.958 11.8 6.834zm0-1.225L13.44 5.31 1.766 12.22V2.99L13.5 1.764 25.234 2.99v9.237z"/></symbol><symbol id="vkontakte" viewBox="0 0 30 22"><path d="M.091 5.49c0-.855.552-1.316 1.656-1.383l4.254.025c.285 0 .475.126.57.377.438 1.258.928 2.343 1.47 3.257.543.913 1.252 1.966 2.127 3.156.076.15.2.226.371.226a.356.356 0 00.314-.176l.086-.277.029-4.35c0-.302-.081-.503-.243-.604-.162-.1-.462-.176-.9-.226-.342-.05-.513-.235-.513-.553 0-.067.01-.118.028-.151.4-1.09 1.542-1.635 3.426-1.635l1.599-.025c.723 0 1.322.16 1.798.478.476.318.714.821.714 1.509v5.708a.707.707 0 00.37.126c.286 0 .534-.15.743-.452 2.093-2.582 3.226-4.31 3.397-5.181a.41.41 0 01.057-.126c.133-.251.352-.47.657-.654.304-.184.57-.31.799-.377a.63.63 0 01.257-.05h4.425l.285.025a1 1 0 01.885.478c.076.1.128.21.157.327.029.117.047.234.057.352.01.117.014.184.014.201v.176c-.133.687-.47 1.42-1.013 2.2-.543.78-1.232 1.623-2.07 2.528-.837.905-1.36 1.5-1.57 1.785-.171.202-.257.386-.257.554 0 .134.076.285.229.452l4.168 4.627c.228.269.342.562.342.88 0 .386-.171.705-.514.956-.342.252-.752.394-1.227.428l-.486.025h-4.339c-.019 0-.057.004-.114.012a.988.988 0 01-.114.013c-.419 0-.809-.16-1.17-.478-.134-.134-1.028-1.123-2.684-2.967a1.457 1.457 0 00-.4-.327c-.075.268-.175.654-.3 1.157a83.81 83.81 0 01-.27 1.081l-.086.428c-.19.586-.59.938-1.199 1.056l-.4.025H12.71c-1.58 0-3.154-.637-4.725-1.911-1.57-1.274-2.983-2.922-4.239-4.942C2.49 11.253 1.32 8.902.235 6.22a1.804 1.804 0 01-.144-.73zm17.157 6.513c-.4 0-.762-.096-1.085-.289-.324-.193-.485-.457-.485-.792V5.138c0-.335-.095-.574-.286-.717-.19-.142-.523-.214-.999-.214l-1.627.05c-.818 0-1.437.126-1.855.378.837.352 1.255.922 1.255 1.71v4.426c-.037.42-.228.767-.57 1.044a1.774 1.774 0 01-1.142.415c-.571 0-1.009-.244-1.313-.73-1.485-1.978-2.589-3.856-3.312-5.633l-.257-.654-3.796-.025c-.248 0-.386.013-.414.038-.029.025-.043.096-.043.214 0 .15.019.31.057.477l.6 1.409c1.598 3.638 3.335 6.505 5.21 8.6 1.874 2.096 3.715 3.144 5.523 3.144h2.854c.115 0 .2-.03.257-.088.058-.059.105-.172.143-.34l.057-.251.543-2.213c.152-.302.285-.503.4-.604.209-.184.456-.276.741-.276.457 0 .924.243 1.4.729l2.426 2.716c.152.218.314.327.485.327h4.71c.571 0 .857-.126.857-.378a.444.444 0 00-.086-.25l-4.14-4.553c-.323-.352-.485-.729-.485-1.131 0-.403.153-.788.457-1.157.248-.336.728-.893 1.442-1.673a38.176 38.176 0 001.87-2.187c.532-.68.884-1.295 1.056-1.849l.085-.327a.347.347 0 01-.028-.163.538.538 0 00-.029-.189h-4.482a1.56 1.56 0 00-.685.453l-.17.478c-.477 1.157-1.723 2.942-3.74 5.356a2.11 2.11 0 01-1.4.503z"/></symbol><symbol id="instagram" viewBox="0 0 23 23"><path d="M11.477.09c1.917 0 3.482.022 4.695.067 1.033.045 1.954.225 2.763.54a5.727 5.727 0 012.021 1.302 5.732 5.732 0 011.303 2.022c.314.808.494 1.729.539 2.762.045 1.213.067 2.778.067 4.694 0 1.917-.022 3.482-.067 4.695-.045 1.033-.225 1.954-.54 2.763a5.733 5.733 0 01-1.302 2.021 5.733 5.733 0 01-2.021 1.303c-.809.314-1.73.494-2.763.539-1.213.045-2.778.067-4.695.067-1.916 0-3.48-.022-4.694-.067-1.033-.045-1.954-.225-2.762-.54a5.732 5.732 0 01-2.022-1.302 5.733 5.733 0 01-1.303-2.021c-.314-.809-.494-1.73-.539-2.763a131.868 131.868 0 01-.067-4.695c0-1.916.022-3.48.067-4.694.045-1.033.225-1.954.54-2.762a5.713 5.713 0 011.302-2.022A5.731 5.731 0 014.021.696C4.829.382 5.75.202 6.783.157 7.996.112 9.561.09 11.477.09zm0 1.482c-1.991 0-3.616.023-4.873.068a7.21 7.21 0 00-2.247.426c-1.078.45-1.841 1.213-2.29 2.291a7.21 7.21 0 00-.427 2.247 142.032 142.032 0 00-.068 4.873c0 1.992.023 3.617.068 4.875a7.21 7.21 0 00.426 2.246c.45 1.078 1.213 1.841 2.291 2.29a7.211 7.211 0 002.247.427c1.257.045 2.882.068 4.873.068 1.992 0 3.617-.023 4.875-.068a7.211 7.211 0 002.246-.426c1.078-.45 1.841-1.213 2.29-2.291a7.211 7.211 0 00.427-2.246c.045-1.258.068-2.883.068-4.875 0-1.991-.023-3.616-.068-4.873a7.211 7.211 0 00-.426-2.247c-.45-1.078-1.213-1.841-2.291-2.29a7.21 7.21 0 00-2.246-.427 142.035 142.035 0 00-4.875-.068zm0 14.465c1.258 0 2.333-.445 3.224-1.336.89-.891 1.336-1.966 1.336-3.224 0-1.257-.445-2.332-1.336-3.223-.891-.89-1.966-1.336-3.224-1.336-1.257 0-2.332.445-3.223 1.336-.89.891-1.336 1.966-1.336 3.223 0 1.258.445 2.333 1.336 3.224.891.89 1.966 1.336 3.223 1.336zm0-10.4c1.618 0 2.995.57 4.133 1.708s1.707 2.515 1.707 4.132c0 1.618-.569 2.995-1.707 4.133-1.138 1.138-2.515 1.707-4.133 1.707-1.617 0-2.994-.569-4.132-1.707-1.138-1.138-1.707-2.515-1.707-4.133 0-1.617.569-2.994 1.707-4.132 1.138-1.138 2.515-1.707 4.132-1.707zm7.458-.224c0 .374-.135.693-.405.955s-.599.393-.988.393a1.3 1.3 0 01-.955-.393 1.3 1.3 0 01-.393-.955c0-.39.131-.719.393-.988.262-.27.58-.404.955-.404.374 0 .7.138.977.415.277.277.416.603.416.977z"/></symbol><symbol id="twitter" viewBox="0 0 1668.6 1221.2"><path d="M336.33 142.251l386.39 516.64-388.83 420.05h87.51l340.42-367.76 275.05 367.76h297.8l-408.13-545.7 361.92-390.99h-87.51l-313.51 338.7-253.31-338.7h-297.8zm128.69 64.46h136.81l604.13 807.76h-136.81l-604.13-807.76z"/></symbol><symbol id="facebook" viewBox="0 0 28 33"><path d="M21 2.75h-3.5c-1.547 0-3.03.71-4.125 1.974-1.094 1.264-1.708 2.98-1.708 4.767v4.045h-3.5v5.393h3.5v10.786h4.666V18.929h3.5L21 13.536h-4.667V9.49c0-.358.123-.7.342-.953.219-.253.516-.395.825-.395H21V2.75z" stroke-width="1.1" stroke-linecap="round" stroke-linejoin="round"/></symbol><symbol id="gift" viewBox="0 0 80 84" fill="#fff"><path d="M65.657 36.757H14.391a3.266 3.266 0 01-3.263-3.262v-9.772a3.267 3.267 0 013.263-3.263h51.265a3.266 3.266 0 013.262 3.263v9.773a3.264 3.264 0 01-3.26 3.261zM14.391 22.96a.773.773 0 00-.763.763v9.773c0 .42.342.762.763.762h51.265c.42 0 .762-.342.762-.762v-9.773a.772.772 0 00-.762-.763H14.391z"/><path d="M58.508 70.236h-36.97a6.289 6.289 0 01-6.282-6.282V35.507a1.25 1.25 0 012.5 0v28.447a3.786 3.786 0 003.782 3.782h36.97a3.786 3.786 0 003.78-3.782V35.507a1.25 1.25 0 012.5 0v28.447a6.288 6.288 0 01-6.28 6.282z"/><path d="M40.023 70.236c-.69 0-1.25-.56-1.25-1.25V35.507a1.25 1.25 0 012.5 0v33.478a1.25 1.25 0 01-1.25 1.251zm-15.601-47.28c-3.913-2.12-5.373-7.027-3.255-10.94 2.117-3.912 7.024-5.372 10.938-3.256C38.07 11.99 41.29 21 41.422 21.383l-2.358.83c-.03-.086-3.038-8.486-8.148-11.255a5.578 5.578 0 00-7.55 2.247 5.58 5.58 0 002.248 7.553l-1.192 2.198z"/><path d="M55.622 22.956l-1.19-2.199a5.541 5.541 0 002.688-3.31 5.53 5.53 0 00-.441-4.241 5.527 5.527 0 00-3.309-2.688 5.533 5.533 0 00-4.24.44c-5.11 2.768-8.118 11.169-8.148 11.254l-2.358-.83C38.758 21 41.977 11.99 47.94 8.76a8.015 8.015 0 016.144-.638 8.01 8.01 0 014.794 3.893 8.013 8.013 0 01.639 6.144 8.028 8.028 0 01-3.895 4.797zm7.916 30.541H16.506a1.25 1.25 0 010-2.5h47.032a1.25 1.25 0 010 2.5z"/></symbol><symbol id="email" viewBox="0 0 19 14" fill="none"><path stroke-width="1.3" d="M1.2 6v8m17-8v8M.5 13.3h18M.5 1.4h18m-.62 1.782L9.53 9.677 1.18 3.182V1.65h16.7v1.532z"/></symbol><symbol id="phone" viewBox="0 0 20 20"><path d="M17.9 9.4H9.4v1.2h8.5l-2.1 2.1.9.9 3.1-3.1a.75.75 0 000-.9l-3.1-3.1-.9.9 2.1 2zm-9.8 10v-6.2a.65.65 0 00-.6-.6H3.1a1.22 1.22 0 001.2 1.2h2.5v5H3.1a1.789 1.789 0 01-1.9-1.7v-14a1.77 1.77 0 011.7-1.8h3.9v5H4.4a1.22 1.22 0 00-1.2 1.2h4.4a.65.65 0 00.6-.6V.6a.86.86 0 00-.7-.6H3.1A3 3 0 000 2.9v13.9a2.89 2.89 0 002.9 3.1h4.6a.5.5 0 00.6-.5z"/></symbol></svg>