<?xml version="1.0" standalone="no"?>
<!DOCTYPE svg PUBLIC "-//W3C//DTD SVG 20010904//EN"
 "http://www.w3.org/TR/2001/REC-SVG-20010904/DTD/svg10.dtd">
<svg version="1.0" xmlns="http://www.w3.org/2000/svg"
 width="976.000000pt" height="976.000000pt" viewBox="0 0 976.000000 976.000000"
 preserveAspectRatio="xMidYMid meet">
<metadata>
Created by potrace 1.14, written by Peter Selinger 2001-2017
</metadata>
<g transform="translate(0.000000,976.000000) scale(0.100000,-0.100000)"
fill="#000000" stroke="none">
<path d="M6068 8813 c-28 -7 -65 -75 -112 -205 -25 -69 -47 -136 -50 -149 -3
-13 -13 -53 -22 -89 -9 -36 -18 -78 -19 -95 -2 -16 -4 -31 -5 -32 -3 -3 -7
-19 -9 -32 0 -6 -10 -8 -21 -6 -123 24 -980 23 -1240 0 -25 -3 -81 -7 -125
-10 -81 -5 -143 -11 -225 -20 -165 -18 -149 -19 -164 17 -7 18 -25 65 -40 104
-31 82 -106 215 -156 274 -19 23 -53 55 -75 70 -98 68 -150 37 -183 -107 -11
-49 -20 -95 -20 -103 0 -8 -2 -28 -6 -45 -7 -32 -15 -226 -21 -490 -2 -88 -4
-175 -4 -192 -1 -31 -6 -35 -133 -99 -73 -36 -151 -77 -173 -90 -22 -13 -47
-27 -55 -31 -8 -3 -26 -14 -40 -24 -14 -9 -65 -43 -115 -75 -93 -60 -255 -180
-321 -239 -7 -5 -40 -35 -74 -65 -86 -76 -224 -213 -290 -290 -30 -35 -62 -71
-70 -79 -13 -14 -66 -81 -92 -116 -4 -5 -18 -23 -31 -40 -104 -132 -266 -401
-356 -589 -28 -59 -51 -108 -51 -110 0 -2 -9 -24 -20 -50 -12 -25 -21 -49 -21
-53 -1 -5 -6 -17 -12 -28 -6 -11 -12 -24 -14 -30 -2 -5 -25 -77 -53 -160 -27
-82 -58 -177 -67 -209 -17 -57 -21 -61 -88 -102 -38 -24 -76 -48 -82 -54 -7
-6 -23 -15 -35 -20 -13 -5 -72 -41 -131 -80 -60 -38 -113 -70 -117 -70 -5 0
-13 -6 -17 -13 -4 -7 -25 -21 -45 -32 -21 -11 -38 -23 -38 -27 0 -5 -5 -8 -11
-8 -7 0 -34 -16 -60 -35 -27 -19 -52 -35 -56 -35 -3 0 -21 -11 -39 -25 -18
-14 -37 -25 -42 -25 -6 0 -12 -3 -14 -7 -2 -5 -48 -37 -103 -73 -55 -36 -101
-68 -103 -72 -2 -5 -10 -8 -18 -8 -8 0 -14 -4 -14 -9 0 -5 -13 -14 -30 -21
-16 -7 -30 -16 -30 -21 0 -5 -5 -9 -10 -9 -12 0 -73 -41 -78 -52 -2 -5 -10 -8
-18 -8 -8 0 -14 -4 -14 -10 0 -5 -4 -10 -9 -10 -5 0 -42 -23 -83 -50 -40 -28
-81 -56 -92 -63 -10 -6 -29 -20 -41 -29 -13 -10 -26 -18 -29 -18 -3 0 -17 -11
-32 -25 -15 -14 -31 -25 -36 -25 -12 0 -59 -36 -54 -41 3 -2 46 -2 98 1 51 3
215 4 363 2 344 -5 375 -6 375 -12 0 -3 24 -6 53 -7 73 -3 237 -19 287 -29 14
-2 39 -7 55 -10 85 -14 217 -63 230 -85 4 -5 9 -31 11 -57 5 -63 19 -170 30
-232 2 -14 7 -41 10 -60 3 -19 7 -43 10 -52 5 -16 10 -41 19 -88 6 -33 42
-171 63 -240 9 -30 17 -57 17 -60 1 -3 4 -12 8 -20 3 -8 15 -44 27 -80 120
-354 311 -699 584 -1050 76 -98 373 -406 461 -477 89 -73 247 -193 275 -210
17 -9 30 -21 30 -25 0 -4 5 -8 10 -8 6 0 33 -15 61 -34 27 -19 58 -38 69 -41
11 -4 20 -10 20 -15 0 -4 8 -10 18 -13 9 -4 40 -20 67 -37 28 -16 67 -38 88
-47 20 -10 37 -21 37 -25 0 -5 6 -8 13 -8 7 0 55 -21 107 -46 87 -42 274 -120
310 -129 8 -2 49 -15 90 -30 113 -39 271 -81 339 -91 19 -2 37 -6 41 -9 4 -2
22 -7 41 -10 19 -3 48 -8 64 -12 64 -13 86 -12 81 6 -15 51 -48 175 -51 189
-2 9 -16 62 -30 117 -15 55 -28 107 -30 115 -23 99 -33 141 -40 170 -12 48
-16 67 -21 90 -3 14 -9 41 -14 60 -5 19 -11 46 -14 60 -2 14 -9 45 -15 70 -6
25 -11 48 -11 52 0 6 123 -65 156 -89 5 -4 19 -13 30 -19 10 -6 46 -26 79 -44
78 -44 344 -176 371 -184 12 -4 20 -15 20 -29 1 -31 14 -271 19 -337 8 -108
17 -245 17 -263 -1 -16 11 -17 141 -13 173 6 322 17 392 30 17 3 62 10 100 16
104 16 100 13 101 72 1 29 7 85 13 123 7 39 15 84 17 100 3 17 8 41 11 55 4
14 8 32 9 40 1 8 5 29 8 45 3 17 8 44 11 60 3 17 19 100 35 185 16 85 32 178
36 205 3 28 7 57 9 65 1 8 6 40 9 70 4 30 9 72 12 94 4 26 17 50 42 76 128
130 222 248 305 383 46 73 67 98 52 60 -4 -10 -8 -36 -10 -58 -2 -22 -6 -55
-9 -73 -3 -18 -8 -52 -11 -75 -3 -23 -9 -55 -11 -72 -3 -16 -7 -41 -9 -55 -3
-14 -6 -34 -8 -45 -3 -11 -8 -40 -12 -65 -4 -25 -9 -54 -12 -65 -5 -26 -12
-59 -17 -87 -2 -13 -9 -44 -15 -71 -6 -26 -14 -64 -17 -85 -3 -20 -8 -40 -11
-45 -2 -4 -7 -20 -9 -35 -3 -15 -10 -45 -16 -67 -6 -22 -12 -49 -14 -60 -1
-11 -3 -20 -4 -20 -1 0 -3 -7 -5 -15 -2 -8 -13 -49 -25 -90 -12 -41 -27 -95
-34 -120 -7 -25 -21 -63 -30 -85 -9 -22 -17 -40 -16 -40 2 0 -17 -49 -30 -77
-18 -40 -51 -90 -88 -136 -31 -38 -33 -44 -15 -38 25 8 60 16 88 21 42 7 384
124 395 135 3 3 12 6 20 8 64 14 352 161 520 266 110 69 113 70 124 79 6 4 58
42 116 84 58 42 110 82 116 87 6 6 30 27 54 46 98 80 270 246 355 345 28 31
59 67 71 79 11 11 43 50 70 86 27 36 60 79 74 96 14 17 31 39 38 50 6 10 35
52 62 92 28 40 50 77 50 82 0 6 5 10 10 10 6 0 10 4 10 10 0 5 20 42 44 82 50
83 55 94 114 214 24 49 50 101 58 116 8 14 14 33 14 42 0 9 4 16 9 16 5 0 13
14 16 32 4 18 11 39 16 48 62 116 181 537 215 760 3 19 7 46 10 60 2 14 6 53
10 88 3 35 7 73 10 85 6 32 17 252 16 325 -1 79 11 92 142 156 184 89 293 111
546 110 172 0 269 -8 333 -25 20 -5 42 -7 47 -4 5 3 11 2 14 -3 2 -4 18 -9 35
-10 l31 -2 -33 33 c-17 19 -52 58 -77 88 -59 71 -384 396 -479 479 -41 36 -84
74 -96 85 -12 11 -37 32 -57 47 -20 15 -42 34 -50 41 -7 7 -58 48 -113 90 -55
42 -113 87 -129 99 -16 13 -34 25 -40 27 -6 2 -15 9 -21 16 -5 6 -71 52 -145
101 -74 49 -137 91 -140 94 -3 3 -18 13 -35 22 -23 13 -48 51 -105 165 -42 81
-85 164 -97 184 -12 20 -27 47 -35 59 -57 98 -252 379 -278 400 -3 3 -13 15
-21 27 -66 96 -331 361 -499 498 -47 38 -87 72 -90 75 -12 12 -287 200 -293
200 -2 0 -42 23 -88 51 -95 57 -316 167 -399 198 -30 12 -60 24 -66 29 -6 4
-14 39 -18 78 -4 39 -8 81 -11 92 -2 12 -6 52 -9 89 -3 37 -8 77 -10 88 -2 11
-7 47 -10 80 -4 33 -9 67 -11 75 -2 8 -6 40 -10 71 -3 31 -7 66 -10 77 -4 22
-11 67 -25 157 -26 170 -40 236 -56 259 -9 15 -19 25 -23 25 -3 -1 -13 -3 -23
-6z m1470 -2402 c21 -20 48 -52 62 -71 14 -18 34 -45 46 -59 12 -14 65 -82
118 -151 53 -69 103 -134 112 -145 30 -38 154 -226 154 -235 0 -5 4 -10 8 -12
9 -3 57 -86 104 -179 l28 -56 -33 -79 c-48 -116 -92 -178 -136 -194 -50 -19
-57 -20 -90 -7 -34 12 -57 62 -66 137 -2 25 -7 63 -10 85 -3 22 -7 74 -10 115
-2 41 -4 76 -5 78 0 1 0 4 0 7 -1 10 -171 277 -211 332 -61 83 -118 141 -146
148 -24 6 -118 -33 -193 -80 -19 -12 -39 -22 -44 -23 -5 0 -12 -4 -15 -9 -3
-4 -73 -53 -156 -108 -82 -55 -152 -102 -155 -105 -3 -3 -32 -25 -65 -50 -131
-98 -264 -209 -335 -280 -162 -162 -212 -232 -221 -315 -2 -22 -3 -238 -1
-480 2 -242 4 -687 6 -989 2 -546 2 -548 -18 -556 -19 -8 -67 -21 -91 -26 -5
-1 -13 -3 -17 -4 -5 -1 -12 -4 -18 -5 -5 -1 -11 -3 -12 -4 -2 -2 -14 -4 -26
-7 -13 -2 -63 -15 -110 -28 -48 -13 -100 -28 -117 -32 -16 -4 -34 -8 -40 -10
-91 -26 -235 -65 -250 -68 -11 -3 -22 -5 -25 -6 -3 -2 -8 -2 -12 -1 -4 0 -26
-6 -50 -15 -24 -9 -50 -17 -58 -19 -46 -10 -187 -47 -200 -52 -8 -3 -24 -8
-35 -10 -11 -2 -45 -10 -75 -19 -126 -37 -146 -43 -172 -48 -16 -4 -30 -6 -33
-6 -3 0 -21 -6 -40 -14 -20 -9 -38 -15 -40 -15 -3 0 -18 -2 -33 -5 -15 -4 -38
-9 -52 -12 -39 -8 -55 -12 -55 -14 0 -1 -9 -3 -20 -5 -11 -2 -92 -20 -180 -38
-143 -31 -191 -41 -260 -52 -11 -2 -49 -9 -84 -15 -35 -6 -67 -8 -72 -3 -7 8
-10 19 -23 103 -3 19 -8 46 -11 60 -2 13 -7 40 -10 60 -3 20 -7 45 -9 57 -6
27 -16 91 -21 128 -3 17 -7 41 -10 55 -3 14 -8 41 -11 60 -3 19 -12 70 -20
113 -7 44 -12 83 -9 87 3 5 1 11 -5 15 -5 3 -10 19 -10 35 0 16 -7 57 -14 92
-8 35 -17 76 -20 92 -3 16 -10 52 -16 80 -6 28 -12 60 -14 71 -2 11 -7 31 -10
45 -3 14 -8 36 -10 50 -6 31 -24 117 -31 148 -9 38 -12 55 -21 102 -4 25 -8
47 -9 50 -8 35 -15 70 -19 90 -3 14 -10 50 -16 80 -6 30 -14 69 -17 85 -8 44
-11 60 -13 60 -1 0 -3 9 -5 20 -2 11 -7 36 -11 55 -4 19 -8 42 -10 50 -3 18
-16 81 -19 95 -2 6 -6 27 -9 49 -3 21 -8 41 -10 45 -3 3 -7 26 -11 51 -4 25
-8 47 -10 50 -2 3 -6 25 -10 50 -4 25 -8 47 -11 51 -2 3 -6 21 -8 40 -2 19
-12 68 -21 109 -9 41 -18 86 -20 100 -2 14 -4 26 -4 28 -1 1 -1 5 0 8 1 11
-35 25 -281 114 -63 23 -132 49 -153 57 -21 9 -44 16 -52 16 -8 0 -15 5 -15
10 0 6 -3 8 -6 4 -3 -3 -29 3 -58 15 -28 11 -55 21 -61 22 -52 13 -73 19 -90
26 -112 46 -224 57 -329 33 -64 -15 -156 -53 -156 -65 0 -5 -6 -8 -14 -8 -16
0 -119 -98 -163 -155 -68 -89 -127 -243 -137 -359 -4 -44 17 -141 34 -156 3
-3 7 -16 9 -30 1 -14 7 -33 12 -42 5 -9 9 -28 9 -41 0 -33 -38 -49 -130 -53
-41 -2 -93 -4 -115 -5 -80 -4 -114 37 -119 141 -2 39 1 91 6 118 4 26 10 56
12 67 5 26 49 149 72 200 10 22 19 45 20 52 3 16 152 313 164 328 6 7 26 43
46 81 20 38 45 81 55 96 11 14 19 31 19 36 0 6 3 12 8 14 4 2 33 37 64 78 70
93 126 154 155 169 21 11 179 9 323 -4 36 -3 106 -7 155 -10 234 -12 356 -20
376 -24 3 -1 27 -31 54 -68 90 -125 215 -270 331 -387 110 -110 305 -276 324
-276 5 0 10 -3 10 -8 0 -4 37 -32 83 -62 45 -30 84 -57 87 -61 10 -12 230
-138 230 -131 0 4 4 2 8 -4 7 -10 27 -20 167 -84 130 -59 154 -69 179 -76 14
-3 26 -11 26 -17 0 -6 -3 -8 -6 -4 -4 3 -12 1 -19 -6 -7 -7 -25 -23 -41 -36
-16 -13 -39 -33 -51 -43 -22 -20 -22 -20 -60 10 -47 38 -98 45 -152 22 -85
-39 -116 -131 -72 -217 21 -42 75 -77 121 -78 24 -1 24 -2 25 -90 1 -50 5
-110 9 -135 6 -37 4 -49 -11 -67 -10 -12 -27 -34 -38 -49 -11 -15 -30 -40 -43
-55 l-23 -28 28 8 c15 5 54 20 86 34 31 14 57 23 57 19 0 -7 13 -23 78 -98 15
-16 48 -45 74 -63 26 -19 45 -38 42 -43 -3 -4 -7 -21 -10 -36 -2 -15 -7 -38
-11 -52 -3 -14 -7 -36 -8 -50 -1 -14 -7 -45 -13 -70 -6 -25 -13 -59 -17 -77
-3 -18 -12 -63 -19 -100 -8 -37 -14 -69 -12 -70 1 -1 40 48 86 110 47 62 90
119 97 127 6 8 38 49 70 90 l59 75 55 3 c30 1 61 4 69 5 57 13 111 32 149 54
42 24 45 25 72 9 15 -9 44 -16 64 -16 30 0 44 7 70 35 28 29 33 41 30 75 -2
23 -10 51 -18 64 -14 21 -13 27 9 73 16 35 31 53 49 57 35 9 44 50 17 79 -16
17 -20 36 -21 87 0 36 -3 76 -6 90 -13 56 -13 82 0 98 8 9 28 35 44 57 17 22
34 45 39 50 30 39 82 114 82 118 0 3 -12 -1 -27 -8 -56 -27 -222 -95 -232 -95
-6 0 -11 3 -11 8 0 9 -37 49 -79 84 l-32 27 16 78 c33 157 35 161 63 179 15
10 31 21 37 26 14 11 77 59 111 83 15 11 41 31 58 45 17 14 39 32 49 40 10 8
37 32 60 54 23 21 71 63 106 95 68 60 413 402 471 467 141 158 190 215 216
254 41 61 101 183 97 196 -2 5 29 21 69 33 40 13 93 30 118 38 46 15 66 20
110 29 14 3 34 8 45 11 22 7 37 11 75 17 14 3 34 7 45 9 24 6 85 16 140 23 22
3 51 7 65 9 14 2 66 7 115 11 50 3 91 7 93 9 11 10 60 -14 90 -44z m-1217 11
c1 -4 2 -60 3 -125 l1 -117 -90 -84 c-98 -91 -326 -321 -398 -401 -25 -27 -60
-66 -78 -86 -19 -19 -49 -53 -67 -75 -123 -146 -289 -324 -303 -324 -11 0 -12
-6 6 60 8 30 13 56 11 58 -2 2 -72 -86 -155 -195 -90 -117 -171 -212 -198
-233 -26 -19 -52 -40 -58 -47 -7 -6 -29 -14 -50 -17 -21 -4 -48 -9 -61 -12
-15 -4 -29 1 -44 16 -37 37 -174 145 -241 191 -35 23 -65 46 -67 51 -2 4 -10
8 -17 8 -7 0 -15 3 -17 8 -1 4 -43 36 -93 71 -49 36 -92 67 -95 71 -3 3 -22
16 -42 30 -21 14 -38 28 -38 33 0 4 -5 7 -11 7 -6 0 -16 6 -24 13 -20 19 -47
40 -85 67 -19 13 -37 27 -40 30 -3 3 -41 34 -85 70 -83 67 -133 111 -196 170
-87 82 -187 181 -223 220 -39 42 -39 43 -37 119 2 42 4 111 4 153 2 70 8 92
25 94 15 1 127 16 144 19 9 2 45 6 80 9 35 4 72 8 83 10 26 5 155 20 265 31
19 2 58 6 85 9 96 11 151 16 220 22 39 3 93 7 120 10 28 2 74 6 103 9 29 2 80
6 115 9 211 18 459 31 751 41 93 3 171 6 172 8 6 5 624 4 625 -1z m-1104
-1569 c-6 -27 -11 -49 -12 -50 -1 -1 -18 2 -39 8 -37 10 -38 11 -19 31 14 16
71 58 79 58 1 0 -3 -21 -9 -47z m-367 -1053 c-6 -11 -15 -20 -21 -20 -6 0 -6
7 1 20 6 11 15 20 21 20 6 0 6 -7 -1 -20z"/>
<path d="M4995 6282 c-1 -2 -14 -5 -27 -7 -38 -7 -90 -31 -114 -52 -45 -39
-35 -108 20 -143 113 -72 127 -79 157 -68 41 14 115 93 134 143 15 38 15 45 1
79 -8 20 -19 36 -23 35 -4 -1 -11 0 -15 1 -5 1 -12 4 -18 5 -5 1 -11 3 -12 5
-4 3 -99 5 -103 2z"/>
<path d="M5340 5912 c0 -11 -68 -100 -95 -125 -36 -33 -95 -55 -133 -50 -46 7
-82 34 -118 90 l-28 45 -19 -23 c-51 -67 -111 -113 -162 -125 -49 -13 -72 -13
-115 0 -73 22 -138 62 -198 123 -39 39 -57 52 -65 44 -8 -8 -4 -22 12 -51 12
-22 21 -41 21 -42 -3 -5 11 -62 28 -118 9 -30 17 -59 18 -65 1 -5 16 -47 33
-91 38 -100 114 -227 161 -273 53 -51 133 -84 210 -87 56 -2 70 1 105 25 22
15 44 36 50 46 5 11 14 27 20 35 5 8 11 24 13 35 6 30 5 166 -2 200 -18 91
-31 135 -52 180 -23 52 -24 66 -2 47 7 -6 32 -17 56 -25 53 -18 100 -9 156 30
49 34 149 150 143 166 -4 14 -37 22 -37 9z"/>
</g>
</svg>
