<svg xmlns="http://www.w3.org/2000/svg">
  <symbol id="copyright" viewBox="0 0 27 34">
    <path d="M13.6426 0.0157537L13.5 0L0 1.40733V26.0129L13.5 34L27 26.0129V1.40733L13.6426 0.0157537ZM25.2344 25.0151L13.5 31.9573L1.76561 25.0151V14.9293L13.4507 21.8451L13.4701 23.0984L5.45351 18.3548L5.44295 19.5801L13.4894 24.3885L13.5088 25.675L5.46408 20.9174L5.45351 22.1427L13.5 26.9511L21.6239 22.1182V20.8929V16.909L25.2432 14.7595L25.2344 25.0151ZM25.2344 13.4519L22.0147 15.3319L20.5325 16.2071L13.4666 12.0201L13.456 13.2454L19.4957 16.818L19.4429 16.8495L19.3126 16.9247L18.4536 17.4166L13.4666 14.4689L13.456 15.6942L17.3921 18.0222L16.4591 18.6314L16.438 18.6436L13.4666 16.902L13.456 18.1273L15.4029 19.2615L13.4155 20.4483L1.7973 13.5762L13.4349 6.61831L25.2344 13.4519ZM25.2344 12.2266L13.4401 5.31075L1.76561 12.2196V2.9897L13.5 1.76442L25.2344 2.9897V12.2266Z"/>
  </symbol>

  <symbol id="vkontakte" viewBox="0 0 30 22">
    <path d="M0.0914307 5.48988C0.0914307 4.63485 0.643326 4.17381 1.74712 4.10674L6.00052 4.13189C6.28599 4.13189 6.47629 4.25763 6.57145 4.50911C7.00916 5.76651 7.4992 6.85206 8.04158 7.76577C8.58397 8.67948 9.29287 9.7315 10.1683 10.9218C10.2444 11.0727 10.3681 11.1482 10.5394 11.1482C10.6726 11.1482 10.7773 11.0895 10.8534 10.9721L10.939 10.6955L10.9676 6.34491C10.9676 6.04313 10.8867 5.84195 10.7249 5.74136C10.5632 5.64077 10.2634 5.56532 9.82573 5.51503C9.48318 5.46473 9.3119 5.28031 9.3119 4.96177C9.3119 4.89471 9.32141 4.84442 9.34044 4.81089C9.74009 3.72114 10.8819 3.17627 12.766 3.17627L14.3646 3.15112C15.0878 3.15112 15.6872 3.31039 16.163 3.62893C16.6388 3.94747 16.8767 4.45043 16.8767 5.13781V10.8464C17.0099 10.9302 17.1336 10.9721 17.2478 10.9721C17.5332 10.9721 17.7806 10.8212 17.99 10.5195C20.0834 7.93761 21.2157 6.21079 21.387 5.33899C21.387 5.32223 21.406 5.28031 21.4441 5.21325C21.5773 4.96177 21.7962 4.74383 22.1007 4.55941C22.4051 4.37499 22.6716 4.24925 22.9 4.18219C22.9761 4.14866 23.0617 4.13189 23.1569 4.13189H27.5816L27.867 4.15704C28.2476 4.15704 28.5426 4.31631 28.752 4.63485C28.8281 4.73544 28.8804 4.84442 28.909 4.96177C28.9375 5.07913 28.9565 5.19649 28.966 5.31384C28.9756 5.4312 28.9803 5.49826 28.9803 5.51503V5.69106C28.8471 6.37844 28.5093 7.11192 27.9669 7.89151C27.4245 8.67109 26.7347 9.51355 25.8973 10.4189C25.06 11.3242 24.5366 11.9194 24.3273 12.2044C24.156 12.4056 24.0704 12.59 24.0704 12.7576C24.0704 12.8918 24.1465 13.0426 24.2987 13.2103L28.4665 17.8375C28.6949 18.1058 28.809 18.3992 28.809 18.7177C28.809 19.1033 28.6378 19.4218 28.2952 19.6733C27.9527 19.9248 27.5435 20.0673 27.0677 20.1008L26.5824 20.126H22.2434C22.2244 20.126 22.1863 20.1302 22.1292 20.1385C22.0721 20.1469 22.034 20.1511 22.015 20.1511C21.5963 20.1511 21.2062 19.9919 20.8446 19.6733C20.7114 19.5392 19.8169 18.55 18.1613 16.7059C18.0661 16.5885 17.9329 16.4795 17.7616 16.3789C17.6855 16.6472 17.5856 17.0328 17.4619 17.5357C17.3382 18.0387 17.2478 18.3992 17.1907 18.6171L17.105 19.0446C16.9147 19.6314 16.5151 19.9835 15.9061 20.1008L15.5065 20.126H12.7089C11.1293 20.126 9.55454 19.4889 7.98449 18.2147C6.41444 16.9406 5.0014 15.2934 3.74536 13.2732C2.48932 11.2529 1.31892 8.90162 0.234162 6.21917C0.139008 6.00122 0.0914307 5.75813 0.0914307 5.48988ZM17.2478 12.0032C16.8481 12.0032 16.4865 11.9068 16.163 11.714C15.8395 11.5212 15.6777 11.2571 15.6777 10.9218V5.13781C15.6777 4.8025 15.5826 4.5636 15.3923 4.42109C15.202 4.27859 14.8689 4.20734 14.3931 4.20734L12.766 4.25763C11.9477 4.25763 11.3292 4.38337 10.9105 4.63485C11.7479 4.98692 12.1665 5.55694 12.1665 6.34491V10.7709C12.1285 11.1901 11.9382 11.538 11.5956 11.8146C11.253 12.0912 10.8724 12.2295 10.4538 12.2295C9.88282 12.2295 9.44511 11.9864 9.14062 11.5002C7.65621 9.52193 6.55242 7.64422 5.82924 5.8671L5.57233 5.21325L1.77566 5.18811C1.52826 5.18811 1.39029 5.20068 1.36174 5.22583C1.3332 5.25098 1.31892 5.32223 1.31892 5.43958C1.31892 5.59047 1.33795 5.74974 1.37602 5.9174L1.97549 7.32568C3.57408 10.9637 5.31065 13.8306 7.18519 15.9263C9.05974 18.0219 10.901 19.0698 12.7089 19.0698H15.5635C15.6777 19.0698 15.7634 19.0404 15.8205 18.9817C15.8776 18.9231 15.9251 18.8099 15.9632 18.6422L16.0203 18.3908L16.5627 16.1778C16.7149 15.876 16.8481 15.6748 16.9623 15.5742C17.1717 15.3898 17.4191 15.2976 17.7045 15.2976C18.1613 15.2976 18.6275 15.5407 19.1033 16.0269L21.5297 18.7428C21.682 18.9608 21.8437 19.0698 22.015 19.0698H26.7252C27.2961 19.0698 27.5816 18.944 27.5816 18.6925C27.5816 18.6087 27.553 18.5249 27.4959 18.4411L23.3567 13.8893C23.0332 13.5372 22.8714 13.16 22.8714 12.7576C22.8714 12.3553 23.0237 11.9697 23.3281 11.6008C23.5755 11.2655 24.0561 10.7081 24.7697 9.92849C25.4834 9.1489 26.1067 8.41961 26.6395 7.74062C27.1724 7.06163 27.5245 6.4455 27.6957 5.89225L27.7814 5.56532C27.7623 5.53179 27.7528 5.47731 27.7528 5.40186C27.7528 5.32642 27.7433 5.26355 27.7243 5.21325H23.2425C22.957 5.31384 22.7287 5.46473 22.5574 5.66592L22.3861 6.14373C21.9103 7.30053 20.6638 9.08603 18.6465 11.5002C18.2469 11.8355 17.7806 12.0032 17.2478 12.0032Z"/>
  </symbol>

  <symbol id="instagram" viewBox="0 0 23 23">
    <path d="M11.4775 0.0898438C13.3942 0.0898438 14.959 0.112305 16.1719 0.157227C17.2051 0.202148 18.126 0.381836 18.9346 0.696289C19.7132 0.995768 20.387 1.43001 20.9561 1.99902C21.5251 2.56803 21.9593 3.24186 22.2588 4.02051C22.5732 4.8291 22.7529 5.75 22.7979 6.7832C22.8428 7.99609 22.8652 9.56087 22.8652 11.4775C22.8652 13.3942 22.8428 14.959 22.7979 16.1719C22.7529 17.2051 22.5732 18.126 22.2588 18.9346C21.9593 19.7132 21.5251 20.387 20.9561 20.9561C20.387 21.5251 19.7132 21.9593 18.9346 22.2588C18.126 22.5732 17.2051 22.7529 16.1719 22.7978C14.959 22.8428 13.3942 22.8652 11.4775 22.8652C9.56087 22.8652 7.99609 22.8428 6.7832 22.7978C5.75 22.7529 4.8291 22.5732 4.02051 22.2588C3.24186 21.9593 2.56803 21.5251 1.99902 20.9561C1.43001 20.387 0.995768 19.7132 0.696289 18.9346C0.381836 18.126 0.202148 17.2051 0.157227 16.1719C0.112305 14.959 0.0898438 13.3942 0.0898438 11.4775C0.0898438 9.56087 0.112305 7.99609 0.157227 6.7832C0.202148 5.75 0.381836 4.8291 0.696289 4.02051C0.995768 3.24186 1.43001 2.56803 1.99902 1.99902C2.56803 1.43001 3.24186 0.995768 4.02051 0.696289C4.8291 0.381836 5.75 0.202148 6.7832 0.157227C7.99609 0.112305 9.56087 0.0898438 11.4775 0.0898438ZM11.4775 1.57227C9.486 1.57227 7.86133 1.59473 6.60352 1.63965C5.79492 1.6696 5.04622 1.81185 4.35742 2.06641C3.2793 2.51562 2.51562 3.2793 2.06641 4.35742C1.81185 5.04622 1.6696 5.79492 1.63965 6.60352C1.59473 7.86133 1.57227 9.486 1.57227 11.4775C1.57227 13.4691 1.59473 15.0937 1.63965 16.3516C1.6696 17.1602 1.81185 17.9089 2.06641 18.5977C2.51562 19.6758 3.2793 20.4395 4.35742 20.8887C5.04622 21.1432 5.79492 21.2855 6.60352 21.3154C7.86133 21.3603 9.486 21.3828 11.4775 21.3828C13.4691 21.3828 15.0938 21.3603 16.3516 21.3154C17.1602 21.2855 17.9089 21.1432 18.5977 20.8887C19.6758 20.4395 20.4395 19.6758 20.8887 18.5977C21.1432 17.9089 21.2855 17.1602 21.3154 16.3516C21.3604 15.0937 21.3828 13.4691 21.3828 11.4775C21.3828 9.486 21.3604 7.86133 21.3154 6.60352C21.2855 5.79492 21.1432 5.04622 20.8887 4.35742C20.4395 3.2793 19.6758 2.51562 18.5977 2.06641C17.9089 1.81185 17.1602 1.6696 16.3516 1.63965C15.0938 1.59473 13.4691 1.57227 11.4775 1.57227ZM11.4775 16.0371C12.7354 16.0371 13.8097 15.5916 14.7007 14.7007C15.5916 13.8097 16.0371 12.7354 16.0371 11.4775C16.0371 10.2197 15.5916 9.14534 14.7007 8.25439C13.8097 7.36344 12.7354 6.91797 11.4775 6.91797C10.2197 6.91797 9.14534 7.36344 8.25439 8.25439C7.36344 9.14534 6.91797 10.2197 6.91797 11.4775C6.91797 12.7354 7.36344 13.8097 8.25439 14.7007C9.14534 15.5916 10.2197 16.0371 11.4775 16.0371ZM11.4775 5.63769C13.0947 5.63769 14.4723 6.20671 15.6104 7.34473C16.7484 8.48275 17.3174 9.86035 17.3174 11.4775C17.3174 13.0947 16.7484 14.4723 15.6104 15.6104C14.4723 16.7484 13.0947 17.3174 11.4775 17.3174C9.86035 17.3174 8.48275 16.7484 7.34473 15.6104C6.20671 14.4723 5.6377 13.0947 5.6377 11.4775C5.6377 9.86035 6.20671 8.48275 7.34473 7.34473C8.48275 6.20671 9.86035 5.63769 11.4775 5.63769ZM18.9346 5.41309C18.9346 5.78743 18.7998 6.10563 18.5303 6.36768C18.2607 6.62972 17.9313 6.76074 17.542 6.76074C17.1676 6.76074 16.8494 6.62972 16.5874 6.36768C16.3254 6.10563 16.1943 5.78743 16.1943 5.41309C16.1943 5.02376 16.3254 4.69434 16.5874 4.4248C16.8494 4.15527 17.1676 4.02051 17.542 4.02051C17.9163 4.02051 18.242 4.15902 18.519 4.43603C18.7961 4.71305 18.9346 5.03874 18.9346 5.41309Z"/>
  </symbol>

  <symbol id="facebook" viewBox="0 0 28 33">
   <path d="M21.0001 2.74976H17.5001C15.953 2.74976 14.4693 3.45999 13.3753 4.72423C12.2813 5.98846 11.6667 7.70313 11.6667 9.49103V13.5358H8.16675V18.9288H11.6667V29.7148H16.3334V18.9288H19.8334L21.0001 13.5358H16.3334V9.49103C16.3334 9.13345 16.4563 8.79051 16.6751 8.53767C16.8939 8.28482 17.1907 8.14277 17.5001 8.14277H21.0001V2.74976Z" stroke-width="1.1" stroke-linecap="round" stroke-linejoin="round"/>
  </symbol>

  <symbol id="gift" viewBox="0 0 80 84">
    <path d="M65.6571 36.7572H14.3908C12.5914 36.7572 11.1277 35.2941 11.1277 33.4953V23.7228C11.1277 21.9241 12.5914 20.4603 14.3908 20.4603H65.6564C67.4552 20.4603 68.9183 21.9241 68.9183 23.7228V33.4959C68.9189 35.2941 67.4558 36.7572 65.6571 36.7572ZM14.3908 22.9603C13.9771 22.9603 13.6277 23.3097 13.6277 23.7228V33.4959C13.6277 33.9159 13.9702 34.2578 14.3908 34.2578H65.6564C66.0764 34.2578 66.4183 33.9159 66.4183 33.4959V23.7228C66.4183 23.3091 66.0689 22.9603 65.6564 22.9603H14.3908Z" fill="white"/>
    <path d="M58.5075 70.236H21.5375C18.0737 70.236 15.2556 67.4185 15.2556 63.9541V35.5072C15.2556 34.8172 15.8156 34.2572 16.5056 34.2572C17.1956 34.2572 17.7556 34.8172 17.7556 35.5072V63.9541C17.7556 66.0397 19.4525 67.736 21.5375 67.736H58.5075C60.5919 67.736 62.2881 66.0397 62.2881 63.9541V35.5072C62.2881 34.8172 62.8481 34.2572 63.5381 34.2572C64.2281 34.2572 64.7881 34.8172 64.7881 35.5072V63.9541C64.7881 67.4185 61.9706 70.236 58.5075 70.236Z" fill="white"/>
    <path d="M40.0232 70.236C39.3332 70.236 38.7732 69.6766 38.7732 68.986V35.5072C38.7732 34.8172 39.3332 34.2572 40.0232 34.2572C40.7132 34.2572 41.2732 34.8172 41.2732 35.5072V68.9853C41.2732 69.6766 40.7138 70.236 40.0232 70.236Z" fill="white"/>
    <path d="M24.4218 22.956C20.5093 20.836 19.0493 15.9285 21.1674 12.0154C23.2843 8.10414 28.1911 6.64352 32.1055 8.75977C38.0686 11.9898 41.2886 21.001 41.4224 21.3829L39.0643 22.2123C39.0343 22.1273 36.0261 13.7266 30.9161 10.9585C28.213 9.49727 24.8268 10.506 23.3661 13.2054C21.9043 15.9073 22.9118 19.2948 25.6136 20.7579L24.4218 22.956Z" fill="white"/>
    <path d="M55.6218 22.956L54.4318 20.7572C55.7411 20.0478 56.6955 18.8722 57.1205 17.4466C57.5449 16.0203 57.388 14.5141 56.6786 13.206C55.9711 11.8966 54.7961 10.9428 53.3705 10.5185C51.9443 10.0941 50.4393 10.2503 49.1305 10.9585C44.0205 13.726 41.0124 22.1266 40.9824 22.2116L38.6243 21.3822C38.758 21.0003 41.9774 11.9891 47.9405 8.7597C49.8355 7.73345 52.0186 7.5072 54.0836 8.1222C56.1505 8.73658 57.8524 10.1197 58.878 12.0153C59.9049 13.9103 60.1318 16.0922 59.5168 18.1591C58.9011 20.2253 57.518 21.9285 55.6218 22.956Z" fill="white"/>
    <path d="M63.5381 53.4972H16.5056C15.8156 53.4972 15.2556 52.9372 15.2556 52.2472C15.2556 51.5572 15.8156 50.9972 16.5056 50.9972H63.5381C64.2281 50.9972 64.7881 51.5572 64.7881 52.2472C64.7881 52.9372 64.2287 53.4972 63.5381 53.4972Z" fill="white"/>
  </symbol>

</svg>
